<svg width="250" height="274" viewBox="0 0 250 274" fill="none" xmlns="http://www.w3.org/2000/svg">
<g clip-path="url(#clip0_131_3782)">
<path d="M51.9082 42.5172C55.5728 42.8128 58.7357 43.3631 62.192 44.6157C64.1742 45.3288 66.1721 45.9729 68.1796 46.6087C69.1967 46.9336 69.1967 46.9336 70.2343 47.2651C71.9571 47.761 73.6407 48.1748 75.3892 48.5489C78.9535 49.333 82.3344 50.5373 85.7703 51.7638C89.2485 52.9793 92.7462 53.9277 96.3195 54.8111C99.7925 55.6946 103.223 56.7201 106.658 57.7441C107.355 57.949 108.051 58.1539 108.769 58.365C109.441 58.5646 110.114 58.7643 110.807 58.97C111.406 59.1479 112.006 59.3259 112.624 59.5093C114.337 60.064 114.337 60.064 116.041 60.7676C117.538 61.3658 118.914 61.7375 120.488 62.0491C123.581 62.7154 126.507 63.6861 129.488 64.746C133.473 66.1309 137.428 67.3368 141.531 68.3128C144.011 68.9542 146.436 69.7324 148.873 70.5246C152.584 71.7299 156.293 72.7692 160.085 73.6881C162.549 74.3408 164.963 75.1294 167.386 75.9236C181.918 80.6089 192.198 78.6036 206.57 74.5739C207.289 74.3737 208.007 74.1735 208.748 73.9672C212.985 72.7734 212.985 72.7734 217.077 71.1573C220.224 69.7662 223.48 68.9674 226.795 68.0914C229.974 67.2288 232.868 66.1434 235.875 64.7882C236.975 64.414 238.081 64.0596 239.196 63.7337C239.759 63.5684 240.322 63.4031 240.903 63.2328C241.435 63.0779 241.968 62.9231 242.516 62.7635C243.192 62.5521 243.192 62.5521 243.881 62.3365C246.002 61.6796 247.567 61.4138 249.822 61.4138C249.329 67.1773 246.85 72.1911 244.527 77.4078C243.819 79.0189 243.135 80.6395 242.452 82.262C241.183 85.2714 239.898 88.2738 238.615 91.2771C238.195 92.2623 238.195 92.2623 237.766 93.2674C236.081 97.2116 234.36 101.137 232.598 105.046C231.665 107.135 230.782 109.244 229.898 111.355C228.217 115.247 226.489 119.116 224.748 122.98C222.959 127.027 221.297 131.123 219.645 135.228C217.152 141.39 214.507 147.391 211.553 153.342C210.494 155.516 209.56 157.705 208.645 159.946C207.982 161.497 207.309 163.043 206.622 164.583C206.106 165.753 205.627 166.939 205.158 168.129C202.371 172.782 197.313 176.19 192.706 178.842C192.268 178.842 191.829 178.842 191.378 178.842C191.158 179.51 190.939 180.179 190.713 180.867C190.056 180.867 189.398 180.867 188.721 180.867C188.721 181.312 188.721 181.758 188.721 182.217C187.605 183.051 186.447 183.827 185.276 184.579C181.887 186.817 178.674 189.186 175.486 191.715C172.725 193.901 169.923 196.023 167.095 198.119C159.62 203.569 159.62 203.569 152.427 209.383C150.865 210.562 150.865 210.562 148.873 210.562C148.653 211.23 148.434 211.898 148.208 212.586C146.883 213.67 146.883 213.67 145.261 214.737C144.461 215.274 144.461 215.274 143.645 215.821C142.231 216.635 142.231 216.635 140.903 216.635C140.684 217.304 140.465 217.972 140.239 218.66C139.581 218.66 138.924 218.66 138.246 218.66C138.246 219.106 138.246 219.551 138.246 220.01C136.84 221.175 136.84 221.175 135.009 222.456C134.107 223.096 134.107 223.096 133.188 223.748C131.605 224.734 131.605 224.734 130.277 224.734C130.277 225.179 130.277 225.625 130.277 226.084C129.408 226.704 128.532 227.315 127.636 227.892C124.667 229.861 121.847 232.056 118.986 234.182C117.727 235.11 116.468 236.038 115.209 236.966C109.93 240.86 109.93 240.86 104.783 244.93C103.985 245.581 103.985 245.581 103.171 246.246C102.688 246.648 102.204 247.05 101.706 247.464C100.39 248.355 100.39 248.355 98.398 248.355C98.1788 249.023 97.9597 249.691 97.7338 250.379C96.4082 251.463 96.4082 251.463 94.7867 252.53C94.2534 252.888 93.72 253.246 93.1705 253.614C91.7566 254.429 91.7566 254.429 90.4283 254.429C90.2091 255.097 89.99 255.765 89.7642 256.453C89.1067 256.453 88.4492 256.453 87.7718 256.453C87.7718 256.899 87.7718 257.344 87.7718 257.803C86.6556 258.637 85.498 259.414 84.3265 260.165C81.2198 262.215 78.242 264.349 75.3191 266.661C74.7765 267.088 74.7765 267.088 74.2229 267.524C72.6429 268.771 71.0724 270.029 69.5131 271.303C69.0457 271.678 68.5782 272.053 68.0966 272.439C67.7045 272.762 67.3124 273.085 66.9084 273.417C66.5608 273.61 66.2133 273.802 65.8551 274C65.1976 273.777 64.5401 273.555 63.8627 273.325C64.9747 270.141 66.6093 267.356 68.3042 264.467C68.7494 263.703 68.7494 263.703 69.2037 262.922C71.2102 259.492 73.2976 256.123 75.4307 252.773C76.8973 250.374 78.1846 247.887 79.4934 245.397C80.4109 243.731 81.3974 242.168 82.4586 240.594C84.2655 237.904 85.7999 235.125 87.3126 232.255C90.8228 225.624 94.5046 219.118 98.4213 212.726C100.479 209.313 102.414 205.831 104.352 202.347C105.571 200.16 106.8 197.98 108.028 195.799C108.478 194.999 108.927 194.199 109.377 193.4C109.699 192.827 110.021 192.255 110.353 191.665C110.791 191.665 111.229 191.665 111.681 191.665C111.736 191.203 111.79 190.741 111.847 190.265C112.473 187.782 113.67 185.837 115.001 183.693C115.548 182.792 116.092 181.891 116.636 180.988C116.916 180.524 117.195 180.06 117.484 179.582C118.838 177.298 120.117 174.972 121.394 172.642C123.11 169.518 124.841 166.406 126.624 163.32C130.371 156.83 133.962 150.249 137.551 143.667C139.065 140.906 140.619 138.168 142.19 135.439C146.709 127.61 146.709 127.61 147.544 118.778C146.615 116.551 146.615 116.551 145.552 114.729C145.552 114.284 145.552 113.838 145.552 113.379C144.894 113.157 144.237 112.934 143.559 112.704C142.902 111.848 142.902 111.848 142.231 110.975C139.97 108.118 137.095 106.218 134.157 104.133C132.711 103.097 131.278 102.041 129.846 100.984C129.308 100.587 128.77 100.19 128.216 99.7804C127.136 98.9829 126.056 98.1854 124.976 97.3877C124.478 97.0215 123.98 96.6553 123.467 96.278C123.019 95.9484 122.572 95.6187 122.111 95.279C120.98 94.4439 120.98 94.4439 119.65 93.8079C119.65 93.3624 119.65 92.917 119.65 92.4581C119.198 92.305 118.746 92.1519 118.281 91.9941C115.866 90.8976 113.654 89.5372 111.681 87.734C111.681 87.2886 111.681 86.8431 111.681 86.3842C111.318 86.3294 110.955 86.2746 110.581 86.2181C108.481 85.5319 107.106 84.3487 105.371 82.9677C101.878 80.215 98.2827 77.7441 94.5481 75.3357C93.8238 74.7916 93.8238 74.7916 93.0849 74.2364C93.0849 73.791 93.0849 73.3456 93.0849 72.8867C92.7219 72.8319 92.3589 72.7771 91.9849 72.7206C89.8855 72.0344 88.5099 70.8511 86.7755 69.4701C83.2819 66.7175 79.6868 64.2466 75.9521 61.8382C75.4693 61.4754 74.9864 61.1127 74.489 60.7389C74.489 60.2935 74.489 59.8481 74.489 59.3891C73.9008 59.273 73.9008 59.273 73.3008 59.1545C71.7191 58.6803 70.8729 58.1097 69.5909 57.0692C66.9778 55.0073 64.3133 53.0331 61.6212 51.0797C61.21 50.7796 60.7987 50.4796 60.375 50.1704C58.2081 48.5842 58.2081 48.5842 55.893 47.2414C55.893 46.7959 55.893 46.3505 55.893 45.8916C55.4821 45.8359 55.0712 45.7802 54.6478 45.7229C53.2365 45.2167 53.2365 45.2167 52.4841 43.8353C52.2941 43.4004 52.104 42.9654 51.9082 42.5172Z" fill="#F17B23"/>
<path d="M97.0699 93.8079C100.962 94.0056 103.615 95.8556 106.368 98.532C106.368 98.9774 106.368 99.4228 106.368 99.8818C106.716 100.035 107.065 100.188 107.424 100.346C109.583 101.54 111.457 103.065 113.383 104.606C115.439 106.24 117.477 107.858 119.651 109.33C119.651 109.775 119.651 110.221 119.651 110.68C120.034 110.735 120.418 110.791 120.813 110.848C122.307 111.355 122.307 111.355 123.472 112.549C125.799 114.897 128.532 116.667 131.219 118.565C132.933 120.128 132.933 120.128 133.634 121.749C133.584 124.162 132.75 125.553 131.564 127.636C131.172 128.334 130.781 129.031 130.378 129.75C130.157 130.139 129.935 130.527 129.707 130.927C127.333 135.149 125.094 139.45 122.826 143.73C122.467 144.407 122.109 145.083 121.739 145.78C121.01 147.155 120.282 148.532 119.555 149.908C117.526 153.729 115.43 157.485 113.187 161.18C112.038 163.18 111.182 165.216 110.353 167.369C109.914 167.369 109.476 167.369 109.024 167.369C108.947 167.86 108.869 168.35 108.789 168.855C108.351 170.785 107.722 172.226 106.809 173.971C106.489 174.588 106.169 175.205 105.839 175.841C105.493 176.498 105.147 177.154 104.791 177.83C104.066 179.219 103.341 180.608 102.617 181.998C102.062 183.057 102.062 183.057 101.496 184.138C100.426 186.199 99.3745 188.269 98.3307 190.344C97.8445 191.306 97.8445 191.306 97.3485 192.287C96.7329 193.506 96.1207 194.726 95.5123 195.949C93.4826 199.94 91.4733 202.569 87.7304 205.036C87.2099 205.381 86.6894 205.727 86.1531 206.083C84.3596 207.247 82.5582 208.398 80.757 209.549C78.0893 211.263 75.5454 213.065 73.0623 215.043C71.601 216.133 70.073 217.049 68.5119 217.985C63.3219 221.285 58.1964 224.679 53.1562 228.211C52.4431 228.706 51.7299 229.201 50.9952 229.711C50.3326 230.176 49.6699 230.64 48.9872 231.119C47.2594 232.158 47.2594 232.158 45.267 232.158C45.267 232.603 45.267 233.048 45.267 233.507C42.0944 236.106 38.4398 238.054 34.8639 240.011C32.5181 241.402 30.3541 243.033 28.1732 244.674C26.7425 245.608 25.6754 246.036 24.0145 246.33C24.0145 246.775 24.0145 247.221 24.0145 247.68C22.6881 248.598 21.3721 249.433 19.9882 250.253C17.513 251.755 15.0541 253.247 12.7241 254.977C10.99 256.262 9.26056 257.378 7.41101 258.478C6.97696 258.774 6.5429 259.069 6.0957 259.374C5.62569 259.691 5.15568 260.007 4.67143 260.334C4.23139 260.636 3.79134 260.939 3.33796 261.251C2.09789 261.852 2.09789 261.852 0.105469 261.177C2.82126 255.477 6.11815 250.02 9.40343 244.643C11.9342 240.499 14.3244 236.286 16.6856 232.041C17.9044 229.855 19.1338 227.674 20.3617 225.493C20.8115 224.694 21.2611 223.894 21.7108 223.094C22.1936 222.236 22.1936 222.236 22.6862 221.36C23.1246 221.36 23.5629 221.36 24.0145 221.36C24.0958 220.968 24.1771 220.577 24.2608 220.174C24.6894 218.621 25.2641 217.431 26.051 216.034C26.3186 215.556 26.5861 215.077 26.8617 214.584C27.1413 214.092 27.4208 213.6 27.7088 213.092C27.9909 212.589 28.273 212.087 28.5636 211.569C29.2582 210.331 29.9567 209.096 30.6559 207.862C31.0942 207.862 31.5326 207.862 31.9842 207.862C32.057 207.363 32.1297 206.863 32.2047 206.349C32.6708 204.393 33.2804 203.321 34.4332 201.704C35.9885 199.433 37.349 197.146 38.6256 194.702C40.1498 191.795 41.8148 189.074 43.6767 186.379C44.7986 184.607 45.6774 182.756 46.5953 180.867C48.6876 177.052 50.8525 173.296 53.2782 169.689C55.1305 166.928 56.6647 164.045 58.2099 161.098C59.441 158.858 60.8226 156.759 62.2726 154.66C63.3944 152.888 64.2716 151.036 65.1912 149.148C65.9275 147.834 66.6749 146.526 67.4327 145.225C69.3937 141.836 71.3017 138.423 73.1609 134.975C73.5992 134.975 74.0375 134.975 74.4891 134.975C74.5705 134.584 74.6518 134.192 74.7356 133.789C75.1648 132.234 75.7332 131.059 76.5231 129.661C76.8193 129.132 77.1155 128.603 77.4207 128.058C77.7683 127.445 78.1159 126.833 78.474 126.202C79.3461 124.656 80.2178 123.109 81.089 121.562C81.317 121.158 81.545 120.754 81.7799 120.338C83.5301 117.23 85.2269 114.095 86.9054 110.946C88.0489 108.814 89.2342 106.709 90.4285 104.606C91.0449 103.478 91.0449 103.478 91.6738 102.328C93.3212 99.3885 95.1984 96.6035 97.0699 93.8079Z" fill="#F17B23"/>
<path d="M201.908 6.89638C203.391 8.14859 203.82 9.08246 204.66 10.798C205.083 11.0094 205.506 11.2208 205.942 11.4386C207.802 12.3978 208.364 13.5713 209.392 15.3956C209.723 15.9706 210.053 16.5457 210.394 17.1382C215.072 26.1967 214.867 36.2957 211.966 45.8916C211.183 47.7905 210.313 49.497 209.309 51.2906C208.871 51.2906 208.433 51.2906 207.981 51.2906C207.83 51.6664 207.68 52.0423 207.524 52.4295C204.51 57.8259 198.192 61.9526 192.615 64.1634C184.279 66.1933 175.083 65.941 167.396 61.941C163.284 59.3661 159.622 56.7199 156.842 52.6404C156.404 52.0279 155.966 51.4155 155.514 50.7845C150.589 42.6516 149.629 33.1212 151.28 23.7472C152.493 19.1375 155.124 14.4174 158.171 10.798C158.609 10.798 159.047 10.798 159.499 10.798C159.718 10.1299 159.937 9.46175 160.163 8.77338C172.945 -1.45449 188.142 -2.11541 201.908 6.89638Z" fill="#F07B23"/>
<path d="M95.0774 97.1823C95.4062 98.5185 95.4062 98.5185 95.7416 99.8818C95.0841 100.104 94.4266 100.327 93.7491 100.557C94.4066 100.891 94.4066 100.891 95.0774 101.232C94.4133 103.256 94.4133 103.256 93.085 105.281C92.3805 106.666 91.6899 108.059 91.0096 109.457C90.6517 110.19 90.2939 110.923 89.9252 111.679C89.6529 112.24 89.3807 112.801 89.1002 113.379C88.6618 113.379 88.2235 113.379 87.7719 113.379C87.646 113.961 87.646 113.961 87.5176 114.555C87.1019 116.1 86.5561 117.426 85.8625 118.863C85.645 119.324 85.4276 119.785 85.2035 120.26C84.4512 121.478 84.4512 121.478 82.4588 122.828C81.9803 124.165 81.5422 125.517 81.1305 126.877C80.0282 129.36 79.0152 131.051 77.1456 132.951C75.8342 135.131 74.6883 137.151 73.7834 139.531C73.1608 141.049 73.1608 141.049 72.2165 141.98C71.0433 143.204 70.4357 144.361 69.7156 145.9C69.3727 146.624 69.3727 146.624 69.0229 147.363C68.7699 147.912 68.7699 147.912 68.5118 148.473C68.0735 148.473 67.6352 148.473 67.1836 148.473C67.0783 148.849 66.9729 149.225 66.8645 149.612C65.8508 152.981 64.5865 155.755 62.6721 158.688C61.5906 160.385 60.7306 162.171 59.878 163.995C59.4397 163.995 59.0014 163.995 58.5497 163.995C58.4265 164.642 58.4265 164.642 58.3007 165.303C58.1637 165.762 58.0267 166.221 57.8856 166.695C57.2281 167.029 57.2281 167.029 56.5573 167.369C56.0964 168.708 55.6354 170.046 55.1746 171.384C54.29 173.393 52.7823 174.619 51.2442 176.143C50.1047 178.507 50.1047 178.507 49.2518 180.867C48.8187 181.772 48.3792 182.673 47.9235 183.566C47.7043 184.012 47.4852 184.457 47.2594 184.916C46.821 184.916 46.3827 184.916 45.9311 184.916C45.8104 185.323 45.6897 185.73 45.5653 186.15C43.8215 191.784 43.8215 191.784 41.9462 193.69C41.5079 193.69 41.0696 193.69 40.618 193.69C40.505 194.089 40.3919 194.488 40.2755 194.9C39.2889 198.168 38.3143 200.59 35.969 203.138C35.3115 202.915 34.654 202.692 33.9766 202.463C34.348 201.825 34.348 201.825 34.727 201.175C35.8608 199.228 36.9941 197.282 38.1274 195.335C38.517 194.666 38.9065 193.997 39.3078 193.309C41.7195 189.166 41.7195 189.166 44.0788 184.993C45.1675 183.067 46.3135 181.207 47.5084 179.348C49.0961 176.837 50.5671 174.305 51.9498 171.672C53.442 168.832 55.0926 166.194 56.8816 163.542C58.3778 161.2 59.6571 158.751 60.9443 156.287C62.5144 153.337 64.2665 150.525 66.0628 147.714C68.6545 143.593 71.0084 139.35 73.1608 134.975C73.5991 134.975 74.0375 134.975 74.4891 134.975C74.6111 134.388 74.6111 134.388 74.7355 133.789C75.1648 132.234 75.7332 131.059 76.523 129.661C76.8192 129.132 77.1155 128.603 77.4206 128.058C77.7682 127.445 78.1158 126.833 78.4739 126.202C79.3461 124.656 80.2177 123.109 81.089 121.562C81.317 121.158 81.545 120.754 81.7799 120.338C83.5301 117.23 85.2268 114.095 86.9054 110.946C88.0488 108.814 89.2342 106.709 90.4284 104.606C90.6536 104.196 90.8788 103.786 91.1107 103.364C92.3107 101.188 93.5426 99.1318 95.0774 97.1823Z" fill="#EF7015"/>
<path d="M53.9004 45.2168C57.9233 45.472 60.0706 46.6567 63.1568 49.2239C63.7431 49.6852 63.7431 49.6852 64.3411 50.1558C65.3202 50.945 66.256 51.789 67.1832 52.6404C67.1832 53.0859 67.1832 53.5313 67.1832 53.9902C68.8269 54.3243 68.8269 54.3243 70.5039 54.6651C70.5039 55.1105 70.5039 55.5559 70.5039 56.0148C71.8189 56.4602 73.1339 56.9057 74.4887 57.3646C74.4887 57.81 74.4887 58.2554 74.4887 58.7143C74.9134 58.7839 75.338 58.8535 75.7755 58.9252C76.2275 59.0783 76.6796 59.2315 77.1453 59.3892C77.474 60.3914 77.474 60.3914 77.8094 61.4138C79.1253 61.9001 80.456 62.3452 81.7943 62.7636C83.7037 63.7337 83.7037 63.7337 85.115 64.7882C85.115 65.4564 85.115 66.1245 85.115 66.8129C85.7999 66.952 86.4847 67.0912 87.1904 67.2347C89.7712 67.962 91.1142 69.2859 92.846 71.3076C93.7976 72.3937 93.7976 72.3937 95.7412 72.8867C95.7412 73.3322 95.7412 73.7776 95.7412 74.2365C96.3165 74.3618 96.3165 74.3618 96.9034 74.4896C100.251 75.4345 101.932 77.153 104.375 79.6355C104.991 80.0113 105.608 80.3872 106.243 80.7744C106.722 81.0667 107.202 81.359 107.696 81.6601C107.696 82.1056 107.696 82.551 107.696 83.0099C108.538 83.2396 108.538 83.2396 109.398 83.4739C112.015 84.4895 114.262 85.7951 116.33 87.734C116.33 88.1795 116.33 88.6249 116.33 89.0838C116.864 89.2787 117.398 89.4735 117.948 89.6743C119.65 90.4335 119.65 90.4335 120.314 91.7833C121.301 92.1174 121.301 92.1174 122.307 92.4582C122.526 92.9036 122.745 93.349 122.971 93.8079C123.628 94.142 124.286 94.4761 124.963 94.8202C126.956 95.8326 126.956 95.8326 127.62 97.1823C128.606 97.5164 128.606 97.5164 129.612 97.8572C129.831 98.3026 130.051 98.748 130.276 99.2069C130.907 99.5271 131.537 99.8472 132.186 100.177C133.965 101.081 135.047 101.689 136.254 103.256C136.254 103.702 136.254 104.147 136.254 104.606C133.917 103.74 132.04 102.728 130.04 101.229C129.518 100.84 128.995 100.452 128.457 100.052C127.92 99.6478 127.384 99.2437 126.831 98.8273C125.757 98.0242 124.682 97.2219 123.607 96.4204C123.134 96.065 122.661 95.7096 122.174 95.3434C120.995 94.4484 120.995 94.4484 119.65 93.8079C119.65 93.3625 119.65 92.9171 119.65 92.4582C119.198 92.3051 118.746 92.1519 118.28 91.9942C115.865 90.8977 113.654 89.5373 111.681 87.734C111.681 87.2886 111.681 86.8432 111.681 86.3843C111.318 86.3295 110.955 86.2747 110.581 86.2182C108.481 85.532 107.106 84.3487 105.371 82.9677C101.878 80.2151 98.2825 77.7442 94.5478 75.3358C93.8235 74.7916 93.8235 74.7916 93.0846 74.2365C93.0846 73.7911 93.0846 73.3457 93.0846 72.8867C92.7216 72.8319 92.3587 72.7771 91.9847 72.7207C89.8853 72.0344 88.5097 70.8512 86.7753 69.4702C83.2817 66.7176 79.6866 64.2467 75.9519 61.8383C75.4691 61.4755 74.9862 61.1127 74.4887 60.739C74.4887 60.2935 74.4887 59.8481 74.4887 59.3892C74.0966 59.3118 73.7045 59.2344 73.3005 59.1546C71.7189 58.6804 70.8727 58.1097 69.5907 57.0693C66.9776 55.0074 64.3131 53.0331 61.621 51.0798C61.2098 50.7797 60.7985 50.4796 60.3748 50.1705C58.2079 48.5843 58.2079 48.5843 55.8928 47.2414C55.8928 46.796 55.8928 46.3506 55.8928 45.8917C55.2353 45.669 54.5778 45.4463 53.9004 45.2168Z" fill="#EE6B0F"/>
<path d="M136.918 104.606C139.974 105.611 141.901 107.134 144.223 109.33C144.223 109.776 144.223 110.221 144.223 110.68C144.881 110.903 145.538 111.125 146.216 111.355C148.547 113.06 148.877 115.37 149.537 118.103C149.756 118.103 149.975 118.103 150.201 118.103C150.43 122.378 149.731 125.596 148.208 129.576C147.77 129.576 147.332 129.576 146.88 129.576C146.798 130.064 146.716 130.551 146.631 131.053C146.219 132.939 145.699 134.579 144.888 136.325C144.23 136.659 144.23 136.659 143.559 137C143.124 138.706 143.124 138.706 142.895 140.374C142.238 140.374 141.58 140.374 140.903 140.374C140.759 141.335 140.759 141.335 140.612 142.315C140.239 144.424 140.239 144.424 139.575 145.773C139.136 145.773 138.698 145.773 138.246 145.773C138.027 147.11 137.808 148.446 137.582 149.823C136.596 150.157 136.596 150.157 135.59 150.498C135.535 150.957 135.48 151.416 135.424 151.89C134.769 154.494 133.688 156.324 132.269 158.596C131.611 158.93 131.611 158.93 130.941 159.271C130.386 160.641 129.967 162.033 129.532 163.447C129.339 163.85 129.147 164.254 128.948 164.67C127.962 165.004 127.962 165.004 126.956 165.345C126.559 166.567 126.559 166.567 126.292 168.044C125.811 169.211 125.296 170.364 124.756 171.503C124.484 172.09 124.213 172.676 123.933 173.28C122.875 174.945 122.113 175.449 120.314 176.143C120.744 173.992 121.493 172.352 122.577 170.459C122.904 169.884 123.231 169.308 123.568 168.715C123.919 168.104 124.27 167.493 124.631 166.863C125.359 165.584 126.086 164.305 126.813 163.025C127.355 162.074 127.355 162.074 127.908 161.103C129.366 158.534 130.8 155.952 132.227 153.366C132.47 152.926 132.713 152.487 132.963 152.034C134.501 149.25 136.028 146.46 137.551 143.667C139.065 140.906 140.619 138.168 142.19 135.439C146.709 127.61 146.709 127.61 147.544 118.778C146.615 116.551 146.615 116.551 145.552 114.729C145.552 114.284 145.552 113.838 145.552 113.379C144.894 113.157 144.237 112.934 143.559 112.704C142.737 111.715 141.918 110.724 141.128 109.707C140.156 108.492 140.156 108.492 138.371 107.137C137.891 106.747 137.412 106.357 136.918 105.956C136.918 105.51 136.918 105.065 136.918 104.606Z" fill="#F06F13"/>
<path d="M92.4211 197.739C93.0786 198.407 93.0786 198.407 93.7494 199.089C92.396 201.719 91.2412 203.023 88.6853 204.445C83.3729 207.516 78.4532 211.027 73.545 214.724C71.9078 215.906 70.243 216.952 68.5121 217.985C63.3221 221.285 58.1966 224.679 53.1564 228.211C52.0867 228.954 52.0867 228.954 50.9954 229.711C50.3327 230.176 49.6701 230.64 48.9874 231.119C47.2596 232.158 47.2596 232.158 45.2672 232.158C45.2672 232.603 45.2672 233.048 45.2672 233.507C43.3884 235.023 41.3218 236.264 39.2899 237.557C38.8482 237.85 38.4064 238.143 37.9513 238.445C35.0306 240.297 35.0306 240.297 33.0221 240.087C32.6796 239.92 32.3372 239.753 31.9844 239.581C33.2164 237.077 36.4349 235.947 38.8748 234.773C40.0806 234.249 40.0806 234.249 40.6182 232.832C42.5343 231.77 44.4139 230.876 46.4709 230.133C47.1901 229.799 47.1901 229.799 47.9237 229.458C48.1429 228.79 48.3621 228.122 48.5879 227.433C49.8902 226.498 49.8902 226.498 51.4935 225.62C52.0191 225.325 52.5448 225.03 53.0864 224.726C54.5651 224.059 54.5651 224.059 56.5575 224.059C56.7219 223.645 56.8863 223.231 57.0557 222.804C58.039 221.093 58.7928 220.665 60.5424 219.841C61.0081 219.615 61.4738 219.389 61.9537 219.156C63.1989 218.66 63.1989 218.66 64.5272 218.66C64.7464 218.215 64.9656 217.769 65.1914 217.31C65.6297 217.533 66.068 217.756 66.5196 217.985C66.5333 217.582 66.547 217.178 66.5612 216.762C67.1838 215.286 67.1838 215.286 69.3837 214.147C71.0954 213.528 72.7135 212.947 74.4893 212.586C74.4893 211.918 74.4893 211.25 74.4893 210.562C75.1468 210.562 75.8043 210.562 76.4817 210.562C77.5965 209.527 77.5965 209.527 78.5987 208.199C78.9506 207.761 79.3024 207.323 79.6649 206.871C79.9295 206.53 80.194 206.189 80.4666 205.837C80.7953 206.506 80.7953 206.506 81.1307 207.187C81.5691 207.187 82.0074 207.187 82.459 207.187C82.459 206.742 82.459 206.296 82.459 205.837C82.8699 205.782 83.2809 205.726 83.7043 205.669C84.17 205.502 84.6357 205.335 85.1156 205.163C85.3073 204.717 85.4991 204.272 85.6967 203.813C86.0665 203.145 86.0665 203.145 86.4438 202.463C88.5193 201.957 88.5193 201.957 90.4287 201.788C90.6478 200.897 90.867 200.006 91.0928 199.089C91.5312 199.089 91.9695 199.089 92.4211 199.089C92.4211 198.643 92.4211 198.198 92.4211 197.739Z" fill="#F26E13"/>
<path d="M117.658 178.842C118.316 178.842 118.973 178.842 119.65 178.842C119.297 181.891 118.129 183.828 116.33 186.266C115.672 186.6 115.672 186.6 115.001 186.941C114.516 188.503 114.071 190.078 113.673 191.665C113.016 191.665 112.358 191.665 111.681 191.665C112.064 188.434 113.435 186.096 115.043 183.356C115.293 182.92 115.544 182.485 115.802 182.036C116.416 180.969 117.037 179.905 117.658 178.842ZM110.352 191.665C110.791 191.665 111.229 191.665 111.681 191.665C112.179 192.846 112.179 192.846 112.345 194.365C111.459 195.264 110.574 196.164 109.688 197.064C109.228 198.019 108.802 198.992 108.402 199.974C107.36 202.519 106.111 204.535 104.482 206.723C103.254 208.537 102.533 210.555 101.719 212.586C100.681 214.569 100.681 214.569 99.7262 215.961C99.2879 215.961 98.8496 215.961 98.398 215.961C98.3432 216.42 98.2884 216.879 98.2319 217.353C97.3811 220.739 96.0036 223.432 93.0848 225.409C92.6174 226.75 92.1742 228.1 91.7566 229.458C91.3182 229.904 90.8799 230.349 90.4283 230.808C90.3324 231.365 90.2365 231.921 90.1377 232.495C89.7641 234.182 89.7641 234.182 87.7717 235.532C87.1142 235.309 86.4567 235.087 85.7793 234.857C86.0207 234.456 86.2621 234.055 86.5109 233.642C88.2877 230.665 90.0132 227.676 91.632 224.607C93.2273 221.602 94.9161 218.67 96.6546 215.75C99.2948 211.314 101.847 206.835 104.363 202.325C105.579 200.147 106.804 197.973 108.028 195.799C108.478 194.999 108.927 194.199 109.377 193.4C109.699 192.827 110.021 192.255 110.352 191.665Z" fill="#F17116"/>
<path d="M148.873 210.562C148.071 213.007 147.348 213.364 145.262 214.737C144.729 215.095 144.195 215.453 143.646 215.821C142.232 216.636 142.232 216.636 140.903 216.636C140.684 217.304 140.465 217.972 140.239 218.66C139.582 218.66 138.924 218.66 138.247 218.66C138.247 219.106 138.247 219.551 138.247 220.01C136.841 221.175 136.841 221.175 135.009 222.456C134.108 223.096 134.108 223.096 133.188 223.748C131.606 224.734 131.606 224.734 130.277 224.734C130.277 225.179 130.277 225.625 130.277 226.084C129.409 226.704 128.533 227.315 127.636 227.892C124.668 229.861 121.847 232.056 118.987 234.182C117.728 235.11 116.469 236.038 115.21 236.966C109.931 240.86 109.931 240.86 104.783 244.93C104.251 245.364 103.72 245.798 103.172 246.246C102.688 246.648 102.205 247.05 101.706 247.464C100.391 248.355 100.391 248.355 98.3985 248.355C98.1793 248.8 97.9602 249.246 97.7344 249.704C97.9535 248.591 98.1727 247.477 98.3985 246.33C99.9327 245.885 101.467 245.439 103.047 244.98C103.135 244.363 103.135 244.363 103.224 243.733C103.85 241.868 104.521 241.564 106.202 240.636C108.629 239.207 110.383 237.58 112.345 235.532C113.433 234.826 114.544 234.155 115.666 233.507C116.71 232.842 117.747 232.166 118.779 231.483C119.289 231.149 119.798 230.815 120.323 230.47C121.809 229.447 121.809 229.447 122.972 227.434C124.511 226.489 126.039 225.597 127.621 224.734C129.393 223.729 130.775 222.885 132.187 221.402C133.468 220.138 134.502 219.436 136.047 218.576C138.274 217.569 138.274 217.569 138.911 215.961C139.569 215.961 140.226 215.961 140.903 215.961C141.123 215.293 141.342 214.624 141.568 213.936C142.937 213.472 142.937 213.472 144.224 213.261C144.224 212.593 144.224 211.925 144.224 211.236C146.632 209.802 146.632 209.802 148.873 210.562Z" fill="#F16E13"/>
<path d="M152.194 40.4926C152.633 40.4926 153.071 40.4926 153.523 40.4926C154.19 42.0379 154.853 43.5846 155.515 45.1323C155.705 45.5717 155.895 46.011 156.091 46.4636C157.507 49.7879 157.507 49.7879 157.507 51.2906C157.946 51.2906 158.384 51.2906 158.836 51.2906C159 51.6803 159.165 52.0701 159.334 52.4716C160.712 54.9929 162.111 56.4493 164.813 57.3645C165.032 57.8099 165.251 58.2553 165.477 58.7142C167.022 59.1795 168.573 59.6285 170.126 60.064C170.784 60.5094 171.441 60.9548 172.119 61.4137C175.728 62.7142 178.928 62.9711 182.703 62.9322C183.208 62.9374 183.713 62.9427 184.233 62.948C187.701 62.936 190.722 62.4819 194.035 61.4137C194.254 60.9683 194.474 60.5229 194.699 60.064C196.058 59.6624 197.418 59.4197 198.809 59.1598C199.206 59.0127 199.603 58.8657 200.012 58.7142C200.341 57.712 200.341 57.712 200.677 56.6896C201.334 56.3555 201.334 56.3555 202.005 56.0147C202.334 55.0125 202.334 55.0125 202.669 53.9901C203.326 53.9901 203.984 53.9901 204.661 53.9901C204.853 53.5586 205.045 53.1271 205.243 52.6825C205.99 51.2906 205.99 51.2906 207.318 50.6157C208.071 49.2547 208.071 49.2547 208.646 47.9162C209.304 47.9162 209.961 47.9162 210.639 47.9162C210.2 49.0297 209.762 50.1433 209.31 51.2906C208.872 51.2906 208.434 51.2906 207.982 51.2906C207.831 51.6664 207.681 52.0422 207.526 52.4294C204.511 57.8258 198.193 61.9526 192.616 64.1633C184.28 66.1933 175.084 65.9409 167.397 61.941C163.285 59.366 159.623 56.7199 156.843 52.6403C156.391 51.9861 155.939 51.3319 155.474 50.6579C153.287 47.1458 151.896 44.7315 152.194 40.4926Z" fill="#EE690C"/>
<path d="M33.3117 205.163C33.75 205.385 34.1884 205.608 34.64 205.837C34.1191 206.951 33.5922 208.061 33.0626 209.17C32.7699 209.788 32.4771 210.407 32.1754 211.044C31.3193 212.586 31.3193 212.586 29.991 213.261C29.3029 214.549 28.6589 215.861 28.0401 217.184C26.865 219.691 25.6735 221.86 24.0137 224.059C23.3394 225.629 22.6756 227.204 22.0213 228.783C20.9836 230.766 20.9836 230.766 20.0289 232.158C19.5906 232.158 19.1522 232.158 18.7006 232.158C18.5226 232.756 18.3445 233.355 18.161 233.971C17.2658 236.509 16.317 238.705 14.3422 240.551C12.982 242.054 12.6673 243.724 12.0592 245.655C10.4226 248.909 10.4226 248.909 8.07439 249.704C7.82029 246.782 8.40228 245.507 10.1498 243.209C12.2283 240.336 13.9475 237.438 15.5875 234.29C17.0003 231.602 18.4714 228.949 19.9459 226.295C20.2155 225.809 20.485 225.323 20.7628 224.822C21.4032 223.668 22.0443 222.514 22.6855 221.36C23.1238 221.36 23.5621 221.36 24.0137 221.36C24.095 220.968 24.1763 220.577 24.26 220.174C24.6886 218.621 25.2633 217.431 26.0503 216.034C26.3178 215.556 26.5853 215.077 26.861 214.585C27.1405 214.092 27.42 213.6 27.708 213.092C27.9901 212.59 28.2722 212.087 28.5628 211.569C29.2574 210.331 29.9559 209.097 30.6551 207.862C31.0935 207.862 31.5318 207.862 31.9834 207.862C31.9834 207.194 31.9834 206.526 31.9834 205.837C32.4218 205.615 32.8601 205.392 33.3117 205.163Z" fill="#F07117"/>
<path d="M205.325 161.296C205.982 161.296 206.64 161.296 207.317 161.296C206.662 166.626 204.189 170.325 200.165 173.662C193.38 178.842 193.38 178.842 191.378 178.842C191.049 179.845 191.049 179.845 190.714 180.867C190.056 180.867 189.399 180.867 188.721 180.867C188.721 181.312 188.721 181.758 188.721 182.217C187.605 183.051 186.448 183.827 185.276 184.579C182.152 186.639 179.163 188.789 176.227 191.117C173.353 193.395 170.459 195.619 167.469 197.739C167.031 196.848 166.592 195.957 166.141 195.039C168.731 193.159 171.045 191.88 174.11 190.99C174.11 190.545 174.11 190.099 174.11 189.64C175.057 188.77 175.057 188.77 176.31 187.869C176.719 187.568 177.127 187.267 177.548 186.957C178.759 186.266 178.759 186.266 180.752 186.266C180.971 185.598 181.19 184.93 181.416 184.241C183.118 183.44 183.118 183.44 184.737 182.892C184.737 182.446 184.737 182.001 184.737 181.542C185.216 181.389 185.695 181.236 186.189 181.078C188.151 180.279 188.151 180.279 189.635 178.589C191.098 177.102 192.104 176.318 193.868 175.341C196.059 174.37 196.059 174.37 196.691 172.768C197.349 172.768 198.006 172.768 198.683 172.768C199.012 171.766 199.012 171.766 199.348 170.744C199.759 170.549 200.169 170.354 200.593 170.153C203.274 168.711 203.917 166.278 204.785 163.447C204.963 162.737 205.141 162.027 205.325 161.296Z" fill="#F06C12"/>
<path d="M73.1612 256.453C73.5996 256.676 74.0379 256.899 74.4895 257.128C74.1782 259.976 73.8832 261.279 71.833 263.202C71.1381 264.536 70.4686 265.884 69.8405 267.251C70.7497 267.287 70.7497 267.287 72.4971 266.576C72.8258 266.228 73.1546 265.88 73.4933 265.522C74.4895 264.552 74.4895 264.552 76.4819 264.552C76.6463 264.12 76.8107 263.689 76.98 263.244C77.8102 261.852 77.8102 261.852 79.2215 261.346C79.6325 261.29 80.0434 261.235 80.4668 261.177C80.4668 260.732 80.4668 260.286 80.4668 259.828C81.4837 258.958 81.4837 258.958 82.7913 258.056C83.2227 257.755 83.6542 257.454 84.0988 257.144C84.4344 256.916 84.77 256.688 85.1158 256.453C85.9924 256.899 86.8691 257.344 87.7723 257.803C87.2972 258.114 86.822 258.426 86.3325 258.747C82.5531 261.261 78.8878 263.848 75.3197 266.661C74.9579 266.945 74.5962 267.23 74.2234 267.523C72.6437 268.771 71.073 270.029 69.5137 271.303C69.0462 271.678 68.5788 272.053 68.0972 272.439C67.7051 272.762 67.313 273.085 66.909 273.417C66.5614 273.61 66.2138 273.802 65.8557 274C65.1982 273.777 64.5407 273.554 63.8633 273.325C65.0048 270.016 66.7515 267.126 68.5123 264.13C68.8119 263.615 69.1115 263.1 69.4203 262.569C70.6291 260.498 71.8461 258.458 73.1612 256.453Z" fill="#F1751A"/>
<path d="M129.613 65.463C133.096 65.8834 136.308 66.6578 139.658 67.6985C140.398 67.9235 140.398 67.9235 141.152 68.153C144.133 69.0631 147.106 70.003 150.077 70.9464C153.427 72.0019 156.793 72.9058 160.2 73.7461C163.303 74.524 166.382 75.3924 169.462 76.261C169.133 77.2632 169.133 77.2632 168.798 78.2857C157.375 76.5638 157.375 76.5638 153.522 74.9113C153.194 73.9091 153.194 73.9091 152.858 72.8867C152.036 72.9284 152.036 72.9284 151.198 72.971C148.495 72.8729 146.151 72.2671 143.56 71.5369C143.128 71.4386 142.696 71.3403 142.25 71.239C140.745 70.8177 139.444 70.2019 138.04 69.5123C135.402 68.2875 133.158 67.7367 130.277 67.4876C130.058 66.8195 129.839 66.1514 129.613 65.463Z" fill="#F07215"/>
<path d="M97.0705 93.8079C100.899 93.8079 103.687 95.9253 106.368 98.532C106.368 98.9774 106.368 99.4228 106.368 99.8818C106.717 100.035 107.065 100.188 107.424 100.346C109.583 101.54 111.458 103.065 113.383 104.606C115.439 106.24 117.478 107.858 119.651 109.33C119.651 109.775 119.651 110.221 119.651 110.68C120.035 110.735 120.418 110.791 120.813 110.849C122.74 111.501 123.553 112.578 124.964 114.054C125.677 114.514 126.389 114.973 127.123 115.446C128.027 116.093 128.027 116.093 128.949 116.754C128.949 117.422 128.949 118.09 128.949 118.778C127.33 118.23 127.33 118.23 125.628 117.429C125.409 116.76 125.19 116.092 124.964 115.404C124.581 115.32 124.197 115.237 123.802 115.151C121.618 114.534 120.575 112.968 118.987 111.355C118.288 111.021 117.59 110.687 116.87 110.342C115.002 109.33 115.002 109.33 114.338 107.601C114.119 107.058 113.9 106.515 113.674 105.956C111.781 105.202 111.781 105.202 109.689 104.606C106.597 102.372 106.597 102.372 105.704 100.557C104.365 99.7917 104.365 99.7917 103.048 99.2069C103.048 98.7615 103.048 98.316 103.048 97.8571C102.267 97.7318 102.267 97.7318 101.47 97.604C99.727 97.1822 99.727 97.1822 98.3987 95.8325C97.7412 96.5006 97.0837 97.1687 96.4063 97.8571C95.9912 96.5917 95.9912 96.5917 95.7422 95.1576C96.1805 94.7122 96.6189 94.2668 97.0705 93.8079Z" fill="#F16F10"/>
<path d="M127.621 131.601C128.06 131.824 128.498 132.046 128.95 132.276C128.712 132.717 128.474 133.159 128.23 133.614C126.42 136.981 124.616 140.352 122.827 143.73C122.468 144.407 122.11 145.083 121.74 145.78C121.011 147.155 120.283 148.532 119.556 149.908C117.512 153.757 115.397 157.536 113.131 161.254C112.255 162.7 112.255 162.7 111.682 164.67C111.024 164.67 110.367 164.67 109.689 164.67C110.072 161.461 111.383 159.291 113.01 156.571C113.448 156.571 113.887 156.571 114.338 156.571C114.393 155.987 114.448 155.402 114.504 154.8C115.078 152.177 116.034 150.575 117.659 148.473C118.097 148.473 118.536 148.473 118.987 148.473C118.768 147.805 118.549 147.137 118.323 146.448C119 144.883 119.701 143.458 120.523 141.977C120.844 141.372 120.844 141.372 121.171 140.754C122.789 137.768 122.789 137.768 124.301 137C124.629 136.22 124.958 135.441 125.297 134.638C126.293 132.276 126.293 132.276 127.621 131.601Z" fill="#F06D12"/>
<path d="M249.822 61.4138C249.463 65.6016 248.134 69.0457 246.501 72.8867C246.279 73.4357 246.058 73.9846 245.829 74.5502C244.602 77.5114 243.333 79.9215 241.188 82.335C241.395 81.2663 241.602 80.1978 241.811 79.1293C241.926 78.5343 242.042 77.9392 242.161 77.3262C242.278 76.752 242.395 76.1778 242.516 75.5862C242.661 74.8294 242.661 74.8294 242.809 74.0572C242.932 73.671 243.054 73.2847 243.18 72.8867C243.619 72.664 244.057 72.4413 244.509 72.2119C244.994 70.6501 245.439 69.0748 245.837 67.4877C246.275 67.4877 246.714 67.4877 247.165 67.4877C247.165 67.0423 247.165 66.5969 247.165 66.138C246.727 65.9152 246.288 65.6925 245.837 65.4631C245.618 65.2404 245.399 65.0177 245.173 64.7882C244.104 65.1014 244.104 65.1014 243.014 65.4209C241.302 65.914 239.597 66.3909 237.867 66.8128C237.867 66.1447 237.867 65.4766 237.867 64.7882C241.946 62.8466 245.257 61.4138 249.822 61.4138Z" fill="#F1741B"/>
<path d="M31.5273 240.467C31.8971 240.62 32.267 240.773 32.648 240.931C31.2113 242.492 29.7414 243.641 27.9575 244.769C27.4978 245.064 27.0381 245.359 26.5644 245.663C25.3425 246.33 25.3425 246.33 24.0142 246.33C24.0142 246.775 24.0142 247.221 24.0142 247.68C22.6878 248.598 21.3718 249.434 19.9878 250.253C17.5127 251.755 15.0538 253.247 12.7238 254.977C10.995 256.258 9.25647 257.384 7.4107 258.478C6.7532 258.923 6.0957 259.369 5.41828 259.828C3.96547 259.575 3.96547 259.575 2.76172 259.153C3.46031 258.652 4.1589 258.151 4.87866 257.634C6.36202 256.561 7.78179 255.471 9.19557 254.302C10.5791 253.2 11.8075 252.482 13.388 251.729C13.9496 251.381 14.5112 251.033 15.0898 250.675C16.7087 249.704 16.7087 249.704 18.7011 249.03C18.7011 248.584 18.7011 248.139 18.7011 247.68C19.2302 247.434 19.2302 247.434 19.7699 247.184C22.5547 245.842 24.5462 244.589 26.6708 242.281C29.5089 240.19 29.5089 240.19 31.5273 240.467Z" fill="#F36D12"/>
<path d="M215.951 72.2118C215.951 72.6572 215.951 73.1026 215.951 73.5615C215.074 73.5615 214.197 73.5615 213.294 73.5615C213.294 74.007 213.294 74.4524 213.294 74.9113C210.138 76.1941 207.122 77.1869 203.796 77.8771C200.611 78.6031 197.476 79.5423 194.335 80.4421C192.348 80.9126 190.744 81.1029 188.721 80.9852C188.502 80.5398 188.282 80.0944 188.057 79.6354C190.232 78.8418 192.38 78.1907 194.641 77.7163C198.68 76.8202 202.638 75.645 206.611 74.4895C208.097 74.0573 209.584 73.6266 211.071 73.1977C212.047 72.9138 212.047 72.9138 213.042 72.624C214.622 72.2118 214.622 72.2118 215.951 72.2118Z" fill="#F07114"/>
<path d="M239.861 83.0099C240.299 83.0099 240.737 83.0099 241.189 83.0099C240.724 86.2085 239.553 88.9956 238.325 91.952C238.01 92.7199 238.01 92.7199 237.689 93.5033C236.428 96.5635 235.127 99.6018 233.78 102.624C232.836 104.825 232.034 107.074 231.227 109.33C230.569 109.107 229.912 108.885 229.234 108.655C229.234 107.987 229.234 107.319 229.234 106.631C229.673 106.631 230.111 106.631 230.563 106.631C230.683 106.093 230.804 105.555 230.928 105.001C231.805 101.248 232.629 97.8253 234.547 94.4828C234.986 94.4828 235.424 94.4828 235.876 94.4828C236.04 93.7172 236.205 92.9517 236.374 92.1629C237.159 88.9317 238.455 86.0059 239.861 83.0099Z" fill="#EE6E15"/>
<path d="M91.0919 53.9901C95.3026 54.3013 99.0423 55.3813 103.046 56.6896C104.123 57.0347 105.199 57.3791 106.276 57.723C109.407 58.7238 112.536 59.7303 115.665 60.7389C115.665 61.1843 115.665 61.6297 115.665 62.0886C112.229 62.2549 109.467 61.7589 106.45 60.0218C104.998 59.3708 103.951 59.2409 102.382 59.0939C100.009 58.8492 98.9409 58.2113 97.0691 56.6896C95.7456 56.4374 94.4168 56.2122 93.0843 56.0147C91.507 55.2977 91.507 55.2977 90.4277 54.665C90.6469 54.4423 90.8661 54.2196 91.0919 53.9901Z" fill="#F27017"/>
<path d="M166.141 197.064C165.122 199.906 163.059 201.327 160.745 203.054C160.357 203.348 159.97 203.642 159.571 203.946C158.798 204.533 158.023 205.118 157.247 205.702C156.321 206.405 155.408 207.126 154.497 207.852C154.039 208.217 153.58 208.582 153.107 208.959C152.519 209.431 152.519 209.431 151.919 209.913C150.865 210.562 150.865 210.562 148.873 210.562C148.873 209.893 148.873 209.225 148.873 208.537C149.531 208.314 150.188 208.092 150.865 207.862C151.4 207.319 151.934 206.776 152.484 206.217C154.007 204.669 154.971 204.058 156.843 203.138C157.295 202.679 157.747 202.219 158.213 201.746C159.499 200.438 159.499 200.438 161.492 199.764C161.93 199.304 162.368 198.845 162.82 198.372C164.148 197.064 164.148 197.064 166.141 197.064Z" fill="#F06D11"/>
<path d="M229.898 110.005C228.562 114.453 226.831 118.559 224.852 122.751C223.956 124.773 223.244 126.787 222.592 128.902C221.935 128.902 221.277 128.902 220.6 128.902C221.283 125.226 222.091 122.073 223.92 118.778C224.359 118.778 224.797 118.778 225.249 118.778C225.321 118.371 225.394 117.964 225.469 117.545C226.941 110.005 226.941 110.005 229.898 110.005Z" fill="#EF6B14"/>
<path d="M87.1086 236.207C86.7725 237.671 86.4445 238.906 85.7803 240.256C85.342 240.256 84.9036 240.256 84.452 240.256C84.452 241.37 84.452 242.483 84.452 243.631C83.5754 243.408 82.6987 243.185 81.7955 242.956C82.567 240.081 83.6205 236.207 87.1086 236.207ZM81.1313 242.956C81.7888 243.401 82.4463 243.847 83.1237 244.305C83.1237 244.751 83.1237 245.196 83.1237 245.655C82.6854 245.655 82.2471 245.655 81.7955 245.655C81.6311 246.156 81.4667 246.657 81.2974 247.174C80.4064 249.165 79.3985 250.277 77.8106 251.729C77.354 250.548 77.354 250.548 77.1465 249.03C77.9767 247.722 77.9767 247.722 79.1389 246.33C79.814 245.212 80.4809 244.089 81.1313 242.956Z" fill="#F0741A"/>
<path d="M209.975 20.9211C210.632 20.9211 211.29 20.9211 211.967 20.9211C214.167 29.291 214.434 36.0871 212.631 44.5418C211.974 44.3191 211.316 44.0964 210.639 43.8669C210.986 42.0024 211.375 40.2725 211.967 38.4679C212.424 32.3389 211.571 26.821 209.975 20.9211Z" fill="#ED7217"/>
<path d="M51.9082 42.5172C52.8635 42.5945 53.8181 42.6806 54.7723 42.7703C55.5698 42.8408 55.5698 42.8408 56.3834 42.9126C57.8855 43.1921 57.8855 43.1921 59.8779 44.5418C60.097 45.21 60.3162 45.8781 60.542 46.5665C61.0488 46.5386 61.5557 46.5108 62.0778 46.4821C63.8627 46.5665 63.8627 46.5665 65.8551 47.9162C65.8551 48.3616 65.8551 48.8071 65.8551 49.266C66.5126 49.7114 67.1701 50.1568 67.8476 50.6157C66.3636 51.0903 66.3636 51.0903 64.5269 51.2906C63.1052 50.3943 63.1052 50.3943 61.7043 49.0973C59.1385 46.8925 56.9845 45.8191 53.7346 45.0164C53.351 44.8598 52.9675 44.7032 52.5723 44.5418C52.3532 43.8737 52.134 43.2056 51.9082 42.5172Z" fill="#F07F2C"/>
<path d="M104.376 172.768C105.033 172.768 105.691 172.768 106.368 172.768C105.96 174.644 105.403 176.241 104.547 177.951C104.319 178.411 104.09 178.872 103.854 179.346C103.616 179.82 103.377 180.294 103.131 180.783C102.897 181.252 102.663 181.72 102.422 182.204C101.964 183.124 101.504 184.044 101.043 184.963C100.153 186.743 99.275 188.529 98.3987 190.315C97.7412 190.315 97.0837 190.315 96.4062 190.315C96.4062 189.87 96.4062 189.424 96.4062 188.965C96.8446 188.965 97.2829 188.965 97.7345 188.965C97.7893 188.437 97.8441 187.908 97.9006 187.363C98.5605 184.121 99.7848 181.206 101.055 178.167C101.713 178.167 102.37 178.167 103.048 178.167C103.486 176.386 103.924 174.604 104.376 172.768Z" fill="#F06F14"/>
<path d="M162.155 7.42358C162.374 7.869 162.594 8.31442 162.819 8.77334C161.565 11.255 159.989 13.4359 158.17 15.5221C157.732 15.5221 157.294 15.5221 156.842 15.5221C156.623 17.7492 156.404 19.9763 156.178 22.2709C155.74 21.38 155.301 20.4892 154.85 19.5714C154.411 19.3487 153.973 19.1259 153.521 18.8965C156.418 12.7404 156.418 12.7404 158.17 10.798C158.609 10.798 159.047 10.798 159.499 10.798C159.718 10.1298 159.937 9.46171 160.163 8.77334C160.82 8.32792 161.478 7.8825 162.155 7.42358Z" fill="#EF6612"/>
<path d="M179.424 0.674927C179.424 1.12035 179.424 1.56576 179.424 2.02468C178.998 2.14734 178.573 2.27001 178.134 2.39639C172.074 4.10691 172.074 4.10691 166.639 7.2128C165.477 8.09857 165.477 8.09857 163.484 8.09857C164.272 5.60781 165.723 4.54885 167.952 3.34016C171.531 1.82157 175.535 0.674927 179.424 0.674927Z" fill="#F06B16"/>
<path d="M170.789 77.6108C175.89 78.4612 180.981 79.3546 186.064 80.3103C185.845 80.9785 185.626 81.6466 185.4 82.335C184.976 82.2375 184.551 82.1401 184.113 82.0397C182.199 81.6435 182.199 81.6435 180.715 81.5599C176.821 81.2724 174.192 80.2348 170.789 78.2857C170.789 78.063 170.789 77.8403 170.789 77.6108Z" fill="#EF751A"/>
<path d="M188.057 1.34973C192.875 2.03456 196.565 3.43075 200.675 6.07387C200.456 6.742 200.237 7.41013 200.011 8.0985C198.351 7.78614 197.235 7.35015 195.777 6.45349C193.917 5.32809 192.116 4.68421 190.049 4.04924C190.049 3.60382 190.049 3.1584 190.049 2.69949C189.392 2.69949 188.734 2.69949 188.057 2.69949C188.057 2.25407 188.057 1.80865 188.057 1.34973Z" fill="#F07419"/>
<path d="M232.554 67.4877C231.226 69.5124 231.226 69.5124 229.592 69.9579C228.953 70.0475 228.314 70.1371 227.656 70.2294C225.232 70.5781 223.417 71.0337 221.264 72.2119C220.163 72.4661 219.057 72.6982 217.943 72.8867C218.578 71.2411 218.914 70.37 220.499 69.5603C220.984 69.4288 221.47 69.2972 221.97 69.1617C222.499 69.0151 223.028 68.8686 223.573 68.7175C224.403 68.5055 224.403 68.5055 225.249 68.2891C225.802 68.1347 226.355 67.9803 226.925 67.8212C231.036 66.716 231.036 66.716 232.554 67.4877Z" fill="#F17017"/>
<path d="M152.858 20.2463C153.297 20.2463 153.735 20.2463 154.187 20.2463C154.11 21.1748 154.025 22.1027 153.938 23.0302C153.891 23.547 153.845 24.0637 153.798 24.5961C153.523 26.3202 153.523 26.3202 152.838 28.2605C152.117 30.6216 152.062 32.5444 152.111 35.0093C152.123 35.787 152.135 36.5648 152.148 37.3661C152.163 37.9524 152.178 38.5388 152.194 39.1429C150.538 37.4598 150.695 36.4417 150.682 34.1421C150.688 33.6627 150.694 33.1833 150.7 32.6894C150.703 32.2035 150.706 31.7175 150.709 31.2169C150.859 22.2784 150.859 22.2784 152.858 20.2463Z" fill="#EC6C11"/>
<path d="M129.614 118.778C130.859 118.989 130.859 118.989 132.27 119.453C133.598 121.478 133.598 121.478 133.456 123.089C132.908 124.94 132.188 126.431 131.232 128.1C130.93 128.633 130.628 129.167 130.317 129.716C130.085 130.115 129.853 130.515 129.614 130.926C128.956 130.926 128.299 130.926 127.621 130.926C127.84 130.035 128.059 129.144 128.285 128.227C128.724 128.227 129.162 128.227 129.614 128.227C129.874 127.161 130.12 126.091 130.361 125.021C130.569 124.128 130.569 124.128 130.781 123.218C130.962 121.256 130.633 120.421 129.614 118.778Z" fill="#EF6C11"/>
<path d="M246.501 68.1626C246.72 68.1626 246.939 68.1626 247.165 68.1626C246.709 73.6093 244.821 78.2473 241.188 82.335C241.394 81.2663 241.602 80.1978 241.81 79.1293C241.983 78.2368 241.983 78.2368 242.16 77.3262C242.278 76.752 242.395 76.1778 242.516 75.5862C242.613 75.0817 242.709 74.5771 242.809 74.0572C242.931 73.671 243.054 73.2847 243.18 72.8867C243.618 72.664 244.057 72.4413 244.508 72.2119C244.941 70.8455 244.941 70.8455 245.172 69.5124C245.611 69.5124 246.049 69.5124 246.501 69.5124C246.501 69.0669 246.501 68.6215 246.501 68.1626Z" fill="#EF6D13"/>
<path d="M116.33 61.4138C123.982 62.7144 123.982 62.7144 127.62 64.1133C127.401 65.0042 127.182 65.895 126.956 66.8128C124.984 66.1447 123.011 65.4766 120.979 64.7882C120.979 64.3428 120.979 63.8974 120.979 63.4384C119.445 63.4384 117.911 63.4384 116.33 63.4384C116.33 62.7703 116.33 62.1022 116.33 61.4138Z" fill="#F27416"/>
<path d="M95.7412 248.355C96.1796 248.355 96.6179 248.355 97.0695 248.355C97.2887 249.023 97.5079 249.691 97.7337 250.379C96.7677 251.058 95.7985 251.732 94.828 252.404C94.019 252.968 94.019 252.968 93.1936 253.543C91.7564 254.429 91.7564 254.429 90.4281 254.429C90.209 255.097 89.9898 255.765 89.764 256.453C88.8873 256.23 88.0107 256.008 87.1074 255.778C88.9274 253.761 90.5482 252.244 92.9186 250.928C95.1091 249.956 95.1091 249.956 95.7412 248.355Z" fill="#F36D15"/>
<path d="M58.5508 44.5419C62.9177 44.9605 66.9634 45.9922 71.1694 47.2414C69.177 48.5911 69.177 48.5911 66.9771 48.4224C64.7443 47.961 62.6805 47.3611 60.5432 46.5665C60.5432 46.1211 60.5432 45.6757 60.5432 45.2167C59.8857 44.994 59.2282 44.7713 58.5508 44.5419Z" fill="#F26E1E"/>
<path d="M73.1607 256.453C73.599 256.676 74.0374 256.899 74.489 257.128C74.1822 259.934 73.9184 261.337 71.8324 263.202C71.0516 264.619 71.0516 264.619 70.5041 265.901C69.8466 265.456 69.1891 265.011 68.5117 264.552C70.0459 261.879 71.58 259.207 73.1607 256.453Z" fill="#F26F18"/>
<path d="M205.988 11.4729C208.431 13.6889 209.85 15.9458 211.301 18.8965C211.082 19.342 210.863 19.7874 210.637 20.2463C207.946 18.3245 206.507 16.6358 205.324 13.4975C205.543 12.8294 205.763 12.1613 205.988 11.4729Z" fill="#F06C13"/>
<path d="M212.629 147.798C213.068 148.021 213.506 148.244 213.958 148.473C213.726 148.929 213.494 149.385 213.255 149.854C212.801 150.757 212.801 150.757 212.339 151.679C212.038 152.274 211.738 152.869 211.428 153.482C210.747 154.98 210.295 156.311 209.973 157.921C209.315 157.699 208.658 157.476 207.98 157.246C208.587 155.396 209.24 153.582 209.931 151.763C210.157 151.163 210.382 150.562 210.614 149.944C211.301 148.473 211.301 148.473 212.629 147.798Z" fill="#F06D14"/>
<path d="M95.7425 190.99C96.4 191.213 97.0575 191.436 97.7349 191.665C96.8583 193.447 95.9816 195.228 95.0784 197.064C94.4209 197.064 93.7634 197.064 93.0859 197.064C93.4384 194.485 94.0802 192.973 95.7425 190.99Z" fill="#F16F14"/>
<path d="M109.024 166.02C109.462 166.465 109.9 166.91 110.352 167.369C109.914 167.369 109.475 167.369 109.024 167.369C108.928 167.898 108.832 168.427 108.733 168.972C108.36 170.744 108.36 170.744 107.695 172.094C107.257 172.094 106.819 172.094 106.367 172.094C106.575 169.816 106.575 169.816 107.031 167.369C107.689 166.924 108.346 166.479 109.024 166.02Z" fill="#ED6C15"/>
<path d="M216.615 135.65C217.273 136.318 217.93 136.987 218.608 137.675C217.95 139.011 217.293 140.347 216.615 141.724C216.177 141.724 215.739 141.724 215.287 141.724C215.725 139.72 216.164 137.715 216.615 135.65Z" fill="#EF7317"/>
<path d="M170.789 77.6108C172.762 77.8335 174.734 78.0563 176.766 78.2857C176.766 78.7311 176.766 79.1766 176.766 79.6355C177.205 79.8582 177.643 80.0809 178.095 80.3103C173.031 79.8885 173.031 79.8885 170.789 77.6108Z" fill="#F36E0E"/>
<path d="M220.6 130.251C220.381 131.81 220.162 133.369 219.936 134.975C219.059 134.975 218.183 134.975 217.279 134.975C217.588 133.154 218.325 130.251 220.6 130.251Z" fill="#EE6614"/>
<path d="M92.4203 197.739C92.8586 198.184 93.297 198.63 93.7486 199.089C92.0052 202.379 92.0052 202.379 89.7637 203.138C89.5446 202.692 89.3254 202.247 89.0996 201.788C89.5379 201.788 89.9763 201.788 90.4279 201.788C90.6471 200.897 90.8662 200.006 91.092 199.089C91.5304 199.089 91.9687 199.089 92.4203 199.089C92.4203 198.643 92.4203 198.198 92.4203 197.739Z" fill="#F5660B"/>
<path d="M201.34 7.42358C203 8.35154 203 8.35154 204.661 9.44821C204.661 9.89363 204.661 10.3391 204.661 10.798C205.099 11.0207 205.537 11.2434 205.989 11.4728C204.893 11.4728 203.797 11.4728 202.668 11.4728C202.668 11.0274 202.668 10.582 202.668 10.1231C202.23 9.90038 201.791 9.67767 201.34 9.44821C201.34 8.78009 201.34 8.11196 201.34 7.42358Z" fill="#F37116"/>
<path d="M148.874 210.562C148.654 211.23 148.435 211.898 148.209 212.586C147.552 212.809 146.894 213.032 146.217 213.261C145.56 212.593 144.902 211.925 144.225 211.236C146.632 209.802 146.632 209.802 148.874 210.562Z" fill="#F17314"/>
<path d="M155.514 14.8473C156.295 17.3269 156.227 19.6857 156.178 22.2709C155.986 21.8394 155.795 21.4079 155.597 20.9634C154.964 19.4688 154.964 19.4688 153.521 18.8966C154.179 17.5603 154.836 16.224 155.514 14.8473Z" fill="#ED7218"/>
<path d="M179.423 0.674927C179.423 1.12035 179.423 1.56576 179.423 2.02468C177.45 2.4701 175.478 2.91552 173.445 3.37443C173.226 2.92901 173.007 2.4836 172.781 2.02468C177.181 0.674927 177.181 0.674927 179.423 0.674927Z" fill="#EF7319"/>
<path d="M211.967 39.8177C212.405 40.0405 212.844 40.2632 213.295 40.4926C213.076 41.8289 212.857 43.1651 212.631 44.5419C211.974 44.3192 211.316 44.0965 210.639 43.867C211.22 40.577 211.22 40.577 211.967 39.8177Z" fill="#EF670F"/>
</g>
<defs>
<clipPath id="clip0_131_3782">
<rect width="250" height="274" fill="white"/>
</clipPath>
</defs>
</svg>
